<svg width="200" height="30" viewBox="0 0 200 30" fill="none" xmlns="http://www.w3.org/2000/svg">
<path d="M57.9833 20.854L61.2728 24.8058H56.8511L54.9285 22.2211C54.3801 22.3329 53.822 22.3901 53.2623 22.3919C49.0113 22.3919 45.5507 19.209 45.5507 14.7017C45.5507 10.1943 49.0113 7.03271 53.2623 7.03271C57.5347 7.03271 60.9313 10.1943 60.9313 14.7017C60.9314 17.3292 59.7776 19.4868 57.9833 20.854ZM53.2623 19.0595C55.6548 19.0595 57.2142 17.3292 57.2142 14.7017C57.2142 12.0314 55.6548 10.3438 53.2623 10.3438C50.827 10.3438 49.289 12.0314 49.289 14.7017C49.289 17.3292 50.827 19.0595 53.2623 19.0595Z" fill="#072446"/>
<path d="M75.3077 22.2427H71.6548V20.6192C70.9285 21.6446 69.6468 22.3709 68.0447 22.3709C65.289 22.3709 63.4305 20.4697 63.4305 17.2867V10.3228H67.062V16.7955C67.062 18.4189 67.981 19.3162 69.3478 19.3162C70.7575 19.3162 71.6548 18.4189 71.6548 16.7955V10.3228H75.3077V22.2427Z" fill="#072446"/>
<path d="M78.128 7.118C78.128 6.0073 79.0039 5.13135 80.307 5.13135C81.5886 5.13135 82.4645 6.0073 82.4645 7.118C82.4645 8.20751 81.5886 9.08335 80.307 9.08335C79.0039 9.08335 78.128 8.20751 78.128 7.118ZM78.4698 10.3223H82.1227V22.2422H78.4698V10.3223Z" fill="#072446"/>
<path d="M90.5607 10.1514C93.5514 10.1514 95.6662 11.7962 96.2856 14.6373H92.3977C92.0988 13.8043 91.5006 13.2701 90.4966 13.2701C89.1936 13.2701 88.2963 14.2955 88.2963 16.2822C88.2963 18.2688 89.1936 19.2942 90.4966 19.2942C91.5006 19.2942 92.0774 18.8034 92.3977 17.927H96.2856C95.6662 20.6828 93.5514 22.4131 90.5607 22.4131C87.0574 22.4131 84.5794 20.0634 84.5794 16.2822C84.5794 12.5225 87.0574 10.1514 90.5607 10.1514Z" fill="#072446"/>
<path d="M98.7643 6.43457H102.417V15.1716L106.027 10.3225H110.535L105.579 16.3038L110.577 22.2424H106.049L102.417 17.2438V22.2424H98.7643V6.43457Z" fill="#072446"/>
<path d="M121.835 19.5937H116.238L115.341 22.2426H111.517L116.943 7.24658H121.172L126.598 22.2426H122.732L121.835 19.5937ZM119.037 11.2839L117.2 16.7739H120.895L119.037 11.2839Z" fill="#072446"/>
<path d="M136.105 10.1514C139.031 10.1514 141.36 12.501 141.36 16.2605C141.36 20.0199 139.031 22.4127 136.105 22.4127C134.353 22.4127 133.093 21.5795 132.43 20.5755V27.9241H128.778V10.3222H132.431V12.0099C133.093 10.9631 134.353 10.1514 136.105 10.1514ZM135.015 13.3343C133.648 13.3343 132.409 14.381 132.409 16.2822C132.409 18.1833 133.648 19.2302 135.015 19.2302C136.404 19.2302 137.643 18.162 137.643 16.2609C137.643 14.3597 136.404 13.3343 135.015 13.3343Z" fill="#072446"/>
<path d="M151.144 10.1514C154.071 10.1514 156.399 12.501 156.399 16.2605C156.399 20.0199 154.07 22.4127 151.144 22.4127C149.392 22.4127 148.132 21.5795 147.47 20.5755V27.9241H143.817V10.3222H147.47V12.0099C148.132 10.9631 149.392 10.1514 151.144 10.1514ZM150.055 13.3343C148.687 13.3343 147.449 14.381 147.449 16.2822C147.449 18.1833 148.687 19.2302 150.055 19.2302C151.444 19.2302 152.682 18.162 152.682 16.2609C152.682 14.3597 151.443 13.3343 150.055 13.3343Z" fill="#072446"/>
<path d="M158.856 6.43457H162.509V22.2424H158.856V6.43457Z" fill="#072446"/>
<path d="M173.916 10.3228H177.868L170.39 27.9036H166.46L169.195 21.8369L164.346 10.3228H168.426L171.181 17.7781L173.916 10.3228Z" fill="#072446"/>
<path d="M189.062 19.5937H183.465L182.568 22.2426H178.744L184.17 7.24658H188.399L193.825 22.2426H189.959L189.062 19.5937ZM186.263 11.2839L184.426 16.7739H188.121L186.263 11.2839Z" fill="#072446"/>
<path d="M195.663 7.118C195.663 6.0073 196.539 5.13135 197.842 5.13135C199.124 5.13135 200 6.0073 200 7.118C200 8.20751 199.124 9.08335 197.842 9.08335C196.539 9.08335 195.663 8.20751 195.663 7.118ZM196.005 10.3223H199.658V22.2422H196.005V10.3223Z" fill="#072446"/>
<path d="M80.3587 9.2539C81.6107 9.2539 82.6257 8.30469 82.6257 7.13379C82.6257 5.96288 81.6107 5.01367 80.3587 5.01367C79.1066 5.01367 78.0916 5.96288 78.0916 7.13379C78.0916 8.30469 79.1066 9.2539 80.3587 9.2539Z" fill="#008189"/>
<path d="M16.9201 1.46325L1.40488 10.118C1.40488 10.118 -0.919815 11.2136 0.416247 13.1107L11.2915 25.402C11.2915 25.402 14.1239 29.4279 22.3894 29.8193L37.3172 19.5586C37.3172 19.5586 38.3326 18.4008 37.2232 17.5327C37.2232 17.5327 30.6366 15.1055 25.8358 9.61893C23.9766 7.54779 22.254 5.358 20.6788 3.06341C20.6788 3.06341 19.2535 1.00011 16.9201 1.46325Z" fill="url(#paint0_linear_1_25253)"/>
<path d="M10.7907 24.8365C12.8961 25.1114 15.0276 25.1223 17.1357 24.869C17.1357 24.869 19.1682 24.5177 19.7704 26.1237C20.3726 27.7297 22.3891 29.8205 22.3891 29.8205C22.3891 29.8205 14.6774 30.0096 10.7907 24.8365Z" fill="url(#paint1_linear_1_25253)"/>
<path opacity="0.3" d="M17.1183 22.7424L35.6864 16.8679C35.6864 16.8679 33.694 16.3517 28.9995 12.6606L17.1183 22.7424Z" fill="#0D646B"/>
<path d="M23.5012 0H36.9526C37.0149 1.0897e-05 37.0757 0.0189858 37.127 0.0544006C37.1783 0.0898155 37.2175 0.139993 37.2396 0.198264C37.2616 0.256536 37.2655 0.32014 37.2505 0.380623C37.2355 0.441106 37.2025 0.495602 37.1558 0.536868L27.4962 9.07361C27.4514 9.11319 27.4192 9.16495 27.4035 9.22256C27.3877 9.28017 27.3891 9.34112 27.4075 9.39794C27.4259 9.45477 27.4604 9.505 27.5069 9.54247C27.5534 9.57994 27.6099 9.60304 27.6693 9.60892L31.3375 9.97118C31.3973 9.97707 31.4541 10.0004 31.5008 10.0383C31.5475 10.0762 31.582 10.127 31.6001 10.1843C31.6181 10.2417 31.619 10.3031 31.6024 10.3609C31.5859 10.4187 31.5527 10.4704 31.5071 10.5095L16.6128 23.2845L23.2349 12.0688C23.2615 12.0239 23.2761 11.9729 23.2774 11.9206C23.2788 11.8684 23.2667 11.8167 23.2425 11.7705C23.2183 11.7242 23.1826 11.6849 23.1389 11.6563C23.0952 11.6276 23.045 11.6106 22.9929 11.6068L16.2389 11.116C16.185 11.1122 16.133 11.0941 16.0883 11.0637C16.0436 11.0332 16.0077 10.9915 15.9843 10.9427C15.9609 10.894 15.9508 10.8399 15.9551 10.7859C15.9593 10.732 15.9777 10.6802 16.0085 10.6357L23.2485 0.132623C23.2768 0.0917148 23.3145 0.0582749 23.3585 0.035174C23.4025 0.0120731 23.4515 2.93357e-06 23.5012 0Z" fill="url(#paint2_linear_1_25253)"/>
<path opacity="0.8" d="M26.4022 0.000105168L17.4745 10.1475L25.3484 10.7354L16.6132 23.2846L23.2353 12.0689C23.2353 12.0689 23.4351 11.7472 22.9932 11.607L16.2393 11.1161C16.2393 11.1161 15.7945 11.0439 16.0088 10.6358L23.2489 0.132729C23.2801 0.0949676 23.3185 0.0637883 23.3619 0.0410029C23.4053 0.0182174 23.4528 0.00428055 23.5016 0L26.4022 0.000105168Z" fill="#E1C67E"/>
<path opacity="0.19" d="M19.0023 1.70323L3.41181 10.804C3.23637 10.9064 3.08559 11.0462 2.97013 11.2134C2.85467 11.3805 2.77736 11.571 2.74367 11.7714C2.70998 11.9717 2.72072 12.177 2.77515 12.3727C2.82957 12.5685 2.92635 12.7499 3.05863 12.9041L13.4661 25.0425L10.7912 24.8366L0.821971 13.5691C0.821971 13.5691 -1.02746 12.0556 0.821971 10.496L16.9202 1.46294C17.6222 1.32069 18.3512 1.40488 19.0023 1.70323Z" fill="#1AF1BD"/>
<path opacity="0.7" d="M16.2782 23.0718L12.4492 21.8588L12.9296 20.9438L16.2782 23.0718Z" fill="#1AF1BD"/>
<path opacity="0.7" d="M16.4287 23.0121L14.4776 19.5357L15.4715 19.083L16.4287 23.0121Z" fill="#1AF1BD"/>
<path opacity="0.7" d="M17.2836 23.5542L20.8938 25.3145L21.1757 24.3202L17.2836 23.5542Z" fill="#1AF1BD"/>
<path opacity="0.7" d="M17.2159 23.4074L21.0255 22.2337L20.6173 21.2207L17.2159 23.4074Z" fill="#1AF1BD"/>
<defs>
<linearGradient id="paint0_linear_1_25253" x1="11.7015" y1="-13.4417" x2="19.8285" y2="43.8292" gradientUnits="userSpaceOnUse">
<stop stop-color="#0D646B"/>
<stop offset="1" stop-color="#1AF1BD"/>
</linearGradient>
<linearGradient id="paint1_linear_1_25253" x1="22.2383" y1="14.5476" x2="20.9505" y2="30.3143" gradientUnits="userSpaceOnUse">
<stop stop-color="#1AF1BD"/>
<stop offset="1" stop-color="#10817C"/>
</linearGradient>
<linearGradient id="paint2_linear_1_25253" x1="15.9541" y1="11.6422" x2="37.2595" y2="11.6422" gradientUnits="userSpaceOnUse">
<stop stop-color="#E1A913"/>
<stop offset="1" stop-color="#E1C67E"/>
</linearGradient>
</defs>
</svg>
